<svg width="111" height="32" viewBox="0 0 111 32" fill="none" xmlns="http://www.w3.org/2000/svg">
<path d="M7.9983 24.0006L16 24V32H0V0H16V8H8L7.9983 24.0006ZM24 8H16V24H24V8ZM39.9972 24.0006H45.1139C49.6663 24.0006 51.2439 21.6807 51.2439 17.0155V14.9411C51.2439 10.2081 49.5082 8.00113 45.1139 8.00113H39.9972V24.0006ZM43.2654 21.2291V10.7726H45.0236C47.0754 10.7726 47.7951 11.8535 47.7951 14.9411V17.0155C47.7951 20.1256 47.0726 21.2291 45.0236 21.2291H43.2654ZM53.0389 24.0006H62.2564V21.2291H56.2845V17.2187H61.4464V14.5149H56.2845V10.7726H62.0532V8.00113H53.0389V24.0006ZM67.3675 24.0006H71.9876L75.998 8.00113H72.5492L69.7326 20.8001L66.8934 8.00113H63.3768L67.3647 24.0006H67.3675ZM77.4882 24.0006H80.7338V8.00113H77.4882V24.0006ZM88.5401 24.1812H88.7208C92.7086 24.1812 94.2637 21.8839 94.2637 18.5028V18.119H90.8375V18.5028C90.8375 20.6223 90.0501 21.4549 88.718 21.4549H88.5373C86.7565 21.4549 86.0142 20.2836 86.0142 17.0832V14.9185C86.0142 11.7181 86.7593 10.5468 88.5373 10.5468H88.718C90.0472 10.5468 90.8375 11.3794 90.8375 13.4989V13.8827H94.2637V13.4989C94.2637 10.1178 92.7086 7.8205 88.7208 7.8205H88.5401C84.5297 7.8205 82.5908 9.91745 82.5908 14.9185V17.0832C82.5908 22.0871 84.5071 24.1812 88.5401 24.1812ZM95.8837 24.0006H99.1293V8.00113H95.8837V24.0006ZM101.181 24.0006H110.4V21.2291H104.427V17.2187H109.589V14.5149H104.427V10.7726H110.195V8.00113H101.181V24.0006Z" fill="black"/>
</svg>
